<?xml version="1.0" encoding="utf-8"?>
<!-- Generator: Adobe Illustrator 25.3.1, SVG Export Plug-In . SVG Version: 6.00 Build 0)  -->
<svg version="1.1" id="图层_1" xmlns="http://www.w3.org/2000/svg" xmlns:xlink="http://www.w3.org/1999/xlink" x="0px" y="0px"
	 viewBox="0 0 800 600" style="enable-background:new 0 0 800 600;" xml:space="preserve">
<style type="text/css">
	.st0{clip-path:url(#SVGID_3_);}
	.st1{fill:#333333;fill-opacity:0;}
	.st2{fill:#0098C8;}
	.st3{fill:#FF714E;}
</style>
<g>
	<defs>
		<polygon id="SVGID_1_" points="1,1 2,1 1,2 		"/>
	</defs>
	<defs>
		<polygon id="SVGID_2_" points="-1,-1 -2,-1 -1,-2 		"/>
	</defs>
	<clipPath id="SVGID_3_">
		<use xlink:href="#SVGID_1_"  style="overflow:visible;"/>
	</clipPath>
	<clipPath id="SVGID_4_" class="st0">
		<use xlink:href="#SVGID_2_"  style="overflow:visible;"/>
	</clipPath>
</g>
<g transform="translate(139.99999809265137,49.38397979736328)">
	<g transform="translate(0,0)">
		<rect x="-132.1" y="-42.9" class="st1" width="567.1" height="585.4"/>
		<path class="st2" d="M-82.7,415.7c52.8,79,140,126.3,233.3,126.5c16.6,0,33.1-1.5,49.4-4.4C129.6,501.2,74.8,415.7-48.5,415.7
			H-82.7z"/>
		<path class="st3" d="M-79.2,229.3c28.6-0.8,57.2,1.3,85.3,6.5C9.9,193.4,47.9,99.9,151.5,99.9c75.4,0,138.3,59,145.3,136.1
			c28.1-5.3,56.7-7.5,85.3-6.7H435C422.4,68.4,285.3-51.6,128.7-38.7C-10.5-27.2-121,86.4-132.1,229.4L-79.2,229.3z"/>
		<path class="st2" d="M-132.1,270.4c2.4,36.2,11.4,71.6,26.6,104.3h56.9c167.3,0,227.6,136.9,304.5,136.9c17.1,0,34.8-5.8,56-20.6
			c12.5-8.9,24.3-18.8,35.3-29.6c-97.2-11.8-212-191-408-191H-132.1z M190,318.6c70.4,48.1,129.1,102.7,167.7,102.7
			c16.7,0,35.7-11.7,56.4-59.2c11.8-29.2,18.8-60.2,20.9-91.7h-71.4C306,270.4,249.9,285.9,190,318.6z"/>
	</g>
</g>
</svg>
